<mxfile host="app.diagrams.net" modified="2023-03-21T17:55:58.239Z" agent="5.0 (Macintosh)" etag="iv8Gyr-iOTsaOOpyPwTG" version="21.0.8" type="github">
  <diagram id="L0T4Wmr-SpnX6vj9T88k" name="Page-1">
    <mxGraphModel dx="1434" dy="797" grid="1" gridSize="10" guides="1" tooltips="1" connect="1" arrows="1" fold="1" page="1" pageScale="1" pageWidth="827" pageHeight="1169" math="0" shadow="0">
      <root>
        <mxCell id="0" />
        <mxCell id="1" parent="0" />
        <mxCell id="gay5fLlkMOhVx0hQ1Wl3-1" value="" style="whiteSpace=wrap;html=1;aspect=fixed;" parent="1" vertex="1">
          <mxGeometry x="210" y="120" width="160" height="160" as="geometry" />
        </mxCell>
      </root>
    </mxGraphModel>
  </diagram>
</mxfile>
